# xmcd CD database file
#
# Track frame offsets:
#	150
#	20052
#	35948
#	54892
#	78623
#	89926
#	112642
#	130687
#	137580
#	151961
#	165655
#	184466
#	202014
#
# Disc length: 2951 seconds
#
# Revision: 0
# Processed by: cddbd v1.5.2PL0 Copyright (c) Steve Scherf et al.
# Submitted via: CDex 1.70beta2
#
DISCID=b40b850d
DTITLE=巨勢 典子 - birth
DYEAR=2010
DGENRE=New Age
TTITLE0=あれから・・・
TTITLE1=いつか話そうと思っていたんだ
TTITLE2=心模様
TTITLE3=風聞歌
TTITLE4=愛しき人よ
TTITLE5=birth
TTITLE6=冬の夜お母さんが物語を読んでくれた
TTITLE7=スノーダンス
TTITLE8=やさしい別れ
TTITLE9=光色の涙
TTITLE10=そして光の中へ
TTITLE11=生きてこそ
TTITLE12=この思い叶うまで
EXTD=YEAR: 2010
EXTT0=
EXTT1=
EXTT2=
EXTT3=
EXTT4=
EXTT5=
EXTT6=
EXTT7=
EXTT8=
EXTT9=
EXTT10=
EXTT11=
EXTT12=
PLAYORDER=
